<svg xmlns="http://www.w3.org/2000/svg" viewBox="0 0 963 963"><defs>
    <style>
      .st0 {
        fill: none;
      }

      .st1, .st2, .st3 {
        fill-rule: evenodd;
      }

      .st1, .st4 {
        fill: #fff;
      }

      .st5, .st3 {
        fill: #ddd;
      }

      .st6 {
        display: none;
      }
    </style>
  </defs>
  <g>
    <polygon class="st5" points="54.1 77.3 142.3 77.3 292.7 492.5 229.1 516.7 54.1 77.3" />
    <path id="back-panel2" data-name="back-panel" class="st4" d="M585.7,905.8c-4.9,0-10-1.2-15.5-3.5l-130.2-56.1-193.9-78.6c-20.2-8.2-37-18.5-51.4-31.4-23.2-20.9-61.2-65.3-64.5-95.7-2.8-25.5-3.6-50.8-4.1-74.5,0-.1,0-.3,0-.4,0-6.9,3.9-13,7.2-16.8,15.7-18.3,33.3-35.4,53.9-52.3,6.7-5.5,13.6-10.2,22.4-15.2l.5-.3-18-46.9L48.1,69.6c-.2-.5-.3-1-.3-1.5,0-1.8,1.1-3.3,2.1-3.9.3-.2.9-.3,1.5-.3,1.5,0,3.3.6,3.8,2l112.6,284.2,55.4,142.9c1.5,3.8,3.7,8.1,8.9,10.3,5.3,2.2,10.9,3.4,16.5,3.4,9.1,0,18-2.9,25.3-8.2,6.7-4.9,10.7-11,10.7-16.4,0-1.1-.2-2.2-.5-3.3l-30-85.5-48.5-134.6L134.7,63.5c-.3-.9-.5-1.8-.5-2.6,0-1.6.7-2.7,1.9-3.4.5-.3,1.3-.4,2-.4,1.4,0,3.2.6,3.9,2.3l29.8,81.7,95.9,266.7,12.4,34.6,139.3-83.2,102.8-61.5c16.2-9.7,66.1-28.3,91.8-28.3s8.5.6,11.2,1.9l39.3,18.5,46.7,24.7c7.2,3.8,11.3,10.7,11.6,19.5l.9,25.7c0,2.6,1.2,7.3,3.4,9.6,16.2,17,28.9,32.8,39.8,49.6l44.9,69.1,79,124.3c3,4.8,6,10,6,16.1l-.5,31.2c0,6.5-1.6,15.3-8.5,20.3l-25.9,19c-3.1,2.3-7,3.5-11.2,3.5h0c-4.7,0-9.5-1.5-13.4-4.2l-84.3-57.6c-9.5-6.5-18.6-12.7-29.2-17.8-25.5-12.2-53.9-18.7-82.3-18.7s-29.5,1.7-43.7,5.1c-41.1,9.8-72.8,32.4-89.4,63.6-1.9,3.6-8.2,16.2-8.2,26.7s.3,4.4,1,6.2v.2c0,0,123.6,109.9,123.6,109.9,6.1,5.4,9.6,13.2,9.6,21.3v31.5c0,7.6-3.9,14.4-11,19l-19.7,12.8c-5.9,3.8-11.7,5.7-17.9,5.7Z" />
    <path id="details1" data-name="details" class="st0" d="M618.4,820.2c2.4,2.6,4.8,5.2,4.7,8.7l-18.7,13.3-21.1-20.2-145.9-128.9-64.3-56.1-55.4-47.8,23-13.4,46,39.6,100.4,87.5,131.4,117.4ZM843.6,633.3l-57.4-47.5-67-55.1-133.4-107,19.6-12.1,143.2,114.9,117.8,97.6,7.8,9.5-18.3,12.2c-4-4.8-7.7-8.7-12.3-12.5Z" />
    <path id="mid-panel2" data-name="mid-panel" d="M381,396.9l67.9,50.7c2.5.5,4.7.3,6.5-.8,1.5-.9,2.6-5.1.7-6.5l-69-51.5s0,0-.1,0c.4,0,0,0-.2,0-.2,0-.4,0-.5,0-.1,0-.3,0-.4,0,0,0-.3,0-.4,0-.7.1-1.3.3-1.9.6,0,0,0,0,0,0,0,0-.1,0-.2,0-.1,0-.3.1-.4.2-.3.1-.5.3-.8.4-.2.1-.4.2-.5.4,0,0-.2.1-.2.2-.1.1-.2.2-.3.3,0,0-.1.1-.2.2,0,0,0,0,0,0,0,.1-.2.2-.2.3,0,.1-.2.3-.2.4,0,0,0,.2-.1.3-.1.3-.2.6-.3.8,0,.2,0,.3-.1.5,0,0,0,0,0,.1,0,0,0,0,0,0,0,.3,0,.6,0,.9l1.2,2.2Z" />
    <g id="front-side-panel1" data-name="front-side-panel">
      <path d="M395.1,536.6c-1.8,17.4-21,28-25.8,22.2-1-1.2-2-4-1.8-6.1,1.2-16.4,19.4-27.7,25.2-22.5s2.7,4.1,2.4,6.4ZM388.2,538.7c0-.9-1.1-2.7-1.9-2.9-5-1.2-12.4,6.7-11.9,14.9,0,.8,1.2,2.5,1.9,2.6,4.5,1,12.2-5.9,11.9-14.7Z" />
      <path d="M415.3,536.7l-14.6,8.5,1-24.7,15.4-8.6c1-.6,4.5-.1,5.4.5,4.9,3.3,2.5,17-7.3,24.2ZM407.4,535.8c8.2-2.7,13.6-11.8,9.1-17.3-3.2.3-6.5,2.2-8.6,4l-.5,13.3Z" />
      <path d="M475.7,490.6c4,2.2-1.2,16.5-17.1,20.3-1.3.3-3.9-1.4-4.2-2.5s1-3.1,2.8-4.3,3.1-1.1,4.7,0c3.2.1,7.6-2.5,8.1-7.2l-9.8,2.9c-.9.3-3.2,0-3.9-.5-3.3-2.9,2.1-16,16.2-19.2,1.3-.3,3.6,1.9,3.8,3.3s-1.4,2.8-2.8,3.5l-2.2,1.1c-.5.2-1.8-1.1-2.4-1.1-2.7,0-7.4,2.6-7,6.8l9.9-3.5c.9-.3,3.1-.1,3.9.3Z" />
      <path d="M502.4,474.6c4.3,3-1.6,16.7-16.9,20.4s-3.9-1.6-4.1-2.9,1.2-3.1,2.9-4,3-.7,5.1-.1c3.2.9,7.5-2.9,7.7-6.9l-9.9,2.9c-.9.3-2.9.2-3.7-.3s-1.3-3.3-.9-4.5c3.6-12.1,19.6-17.8,20.4-12s-1.2,3.4-2.3,3.9l-2.5,1.2c-.5.2-1.7-.9-2.3-1.2-2.7.4-7,2.5-6.4,6.7l8.8-3.3c1-.4,3.3-.2,4.2.4Z" />
      <path d="M516.9,467l-.6,4.8,12.1-6.5c.1,1.7,0,3.8-.5,5.3l-18.5,10.7,1-24.3,18.2-10.8c0,1.7-.1,4-.4,5.5l-11.2,6.7-.5,4.2,11-6.4-.7,5.2-9.9,5.6Z" />
      <path d="M435.6,515.3l-8.4-9.4,7-4.2,4.5,5.6,5.5-11.2c.9-1.8,4.9-3.2,7-3.7l-9,19.2-.4,9.3c-1.5,1.2-3.8,2.6-6.6,3.9l.2-9.6Z" />
      <path d="M540.9,453.1l-7.7-9.6,6.3-3.9,4.6,5.7,5.2-11.3,6.9-3.6-8.8,19.2c-.9,1.9,0,6.3-.7,8.8-1,1.3-3.9,2.8-5.7,3.5v-8.9Z" />
    </g>
    <path d="M891.2,611.8l-79-124.3-44.9-69.1c-11.8-18.1-25-34.1-39.9-49.7-1.9-2-3.1-6.4-3.2-9.1l-.9-25.7c-.3-8.7-4.2-16-12-20.1l-46.8-24.7-39.3-18.5c-19.1-9-85.2,15.5-103.6,26.5l-102.8,61.5-138.5,82.8-12.1-33.7-95.9-266.7-29.8-81.7c-1-2.8-4.7-3.4-6.9-2.3-2.2,1.1-2.9,3.7-1.8,6.8l70.7,195.3,48.5,134.6,30,85.5c4.6,13.1-23.3,35.3-51,23.5-4.5-1.9-6.7-5.4-8.5-9.8l-55.4-142.9L55.9,65.6c-1-2.5-4.9-2.9-6.3-2.1-1.7,1-3.1,3.8-2.1,6.3l144,364.3,17.8,46.3c-8.2,4.7-15.3,9.4-22.5,15.3-19.5,16.1-37.5,33.2-54,52.4-4.2,4.9-7.5,11.2-7.4,17.7.6,25.1,1.4,49.5,4.1,74.6,3.3,30.4,41.1,74.9,64.7,96.2,15.3,13.8,32.5,23.8,51.7,31.6l193.9,78.6,130.2,56.1c12.1,5.2,23.1,5,34.1-2.2l19.7-12.8c6.8-4.4,11.3-11.3,11.3-19.6v-31.5c0-8.1-3.5-16.2-9.8-21.8l-123.4-109.8c-3.1-8.7,2.4-23.3,7.2-32.3,17.9-33.7,52.2-54.5,89-63.2,42-10,86.6-5.2,125.5,13.5,11.3,5.4,20.7,12,30.9,19l82.5,56.4c7.7,5.3,18.3,6,25.5.7l25.9-19c6.5-4.8,8.6-13,8.7-20.9l.5-31c0-6.3-2.8-11.5-6.1-16.8ZM719,372.6c10.5,9.9,19.3,19.8,27.9,31.2,14.6,19.2,27.6,39,40.6,59.5l95.5,150.8c2.2,3.5,4.1,6,4.7,10.4l-7.1,5c-4.8-7.3-9.9-11.8-16.3-17l-110.9-91.6-52.2-42.4-88.8-70.7c15.9-9.1,32.3-14.7,49.6-20.1l56.8-15ZM716,365.8c-26.1,5.9-51.3,12.5-76.3,21.4-12.4,4.7-23.9,9.5-35.1,16.3l-27,16.2c-2.6,2.7-6.1,6.7-6.2,10.8l-.9,36.6-203,122.1-18.2-15.6c-1.5-5.1-6.4-7-11.8-5.2l-36,22.1c-29.6,18.2-77.7,70-102.8,99.2l-1.9-31.5c-.2-3.4,1.9-4.5,4-6.6,25-24.9,49.5-49.5,76.4-72.4,11.5-9.8,22.3-20.3,35.4-28.3l287.3-175.5c8.9-5.4,17.3-9.5,27-13.2,28.7-11.1,57.8-20.1,87.8-27.7l1.3,31.5ZM490.2,695.9l-116.8-101.6,197.1-119c1.9-1.1,3.3-1.2,5.3-.5l124.1,100c-17.1-4.1-32.8-7.3-50-8.1-25.6-1.4-50.4,1.8-75.1,9.9-38.7,13.6-73,39.1-83.8,79.4-3.2,13.1-2.7,25.7-.8,39.9ZM220.1,503.8c16,15.2,42.8,12.7,59.6-.3,6.8-5.4,11.3-11.9,12.9-21.2,6.2,5.3,7.4,13.8,4.2,21.1-8.4,18.7-32.7,28.3-53.2,25.1-13.1-2.1-25.5-11-23.6-24.7ZM138,555.9c14.6-17.6,31.1-33.2,48.4-48.2,8.2-7.1,15.7-12.7,25.6-18.8,1.3,1.9,2,3.8,2.6,6.1-4.7,9-3.6,19.2,2.7,27.3,5.8,7.5,14.8,12,24.4,13.7,19,3.3,38.5-2.5,52.5-15.6,6.5-6,10.9-13.5,11.9-22.3,1.4-11.7-5.2-22.1-15.7-27.1l-7.3-21.1,93.5-55.7,13-7.7,106.2-64,32.8-19.6c24.8-11,50.2-19.4,76.7-25.6,6.4-1.5,12.1-.8,17.8,2l36.8,17.7,45.4,23.7c2.8,1.5,5.2,4.1,6.8,6.7-30,8.3-58.3,16.7-86.6,27.7-8,3.1-15.7,6-23.2,10.5l-289.5,176.5c-9,5.5-16.5,11.5-24.6,18.1-32,26.5-61.8,54.9-90.9,84.6-1.8,1.8-5.9,2.8-7.7,1-19.6-19.5-40.8-49.8-53.4-74.5-2.6-5.1-2.4-10.8,1.5-15.5ZM575.1,895.2l-157.6-67.6-168-67.8c-23.3-9.4-43.8-22.7-61-40.9-14.7-15.6-27.6-31.8-38.6-50.1-4.5-9.1-10.2-17.4-11.4-27.6-2.3-19-2.8-38-3.4-57,14.9,24.7,30.6,47,50.1,67.1,1.5.9,4.3,3.1,4.4,4.6l1.9,32.3c.4,6.7,5.1,11.9,10.1,16,12.9,10.4,26.9,18.1,42.6,24.3l131.7,52.1,130.5,52.5,74.6,30.2.2,33.6c-2-.2-3.8-.7-6.1-1.6ZM579.8,855.2l-43.9-17.6-276-110.2-32.3-14.3c-9.1-4-16.9-9.9-24.4-17.1,19.2-22.9,38.7-44,60.1-64.1,15-14.1,29.9-27.1,47.4-38.4l38.9,33.5,78.7,68.6,151.7,133.7,18.1,17.5-9.7,7.1c-1.7,1.3-5.8,2.5-8.6,1.4ZM626.3,835.4v34c-.2,5.1-4,9-8.1,11.5l-24.9,15.5c-.9.5-3.1.7-3.7.4s-1.4-2.2-1.4-3v-28.1c0-2.3,1.8-4.3,3.5-5.5l34.6-24.8ZM618.4,820.2c2.4,2.6,4.8,5.2,4.7,8.7l-18.7,13.3-21.1-20.2-145.9-128.9-64.3-56.1-55.4-47.8,23-13.4,46,39.6,100.4,87.5,131.4,117.4ZM850.2,688.8c0,1.1-1,3.2-1.8,3.8-.9.7-4,.5-5.1-.3l-51.1-35.1c-18.7-12.8-36.4-26.1-56.2-37.3-44.9-25.3-99.3-30.7-148.6-16.7-34.8,9.9-68.4,32.2-85.6,64.1l-6,12.6c-1.4-47.1,35.5-79.9,77.7-95.3,44-16,95-13.9,138.9,1.8,1.5.5,3.9-.3,4.8-1.1,1-1,1.3-4.5.3-5.9l-139.3-112.1.6-35,1-2.2c.2-.5,1.9.2,2.6.7l156.4,125.7,53.2,43.8,51,42.5c3.7,3,7.9,8.4,7.8,13.2l-.5,32.7ZM843.6,633.3l-57.4-47.5-67-55.1-133.4-107,19.6-12.1,143.2,114.9,117.8,97.6,7.8,9.5-18.3,12.2c-4-4.8-7.7-8.7-12.3-12.5ZM888.3,660.9c-.6,5.7-2.8,10.6-7.2,14.2l-23.8,17.2.6-37.8c.7-1.6,2.3-3.6,3.8-4.5l27-17.2-.4,28.1Z" />
  </g>
  </svg>
